<?xml version="1.0" encoding="iso-8859-1"?>
<!-- Uploaded to: SVG Repo, www.svgrepo.com, Generator: SVG Repo Mixer Tools -->
<svg fill="#000000" version="1.1" id="Layer_1" xmlns="http://www.w3.org/2000/svg" xmlns:xlink="http://www.w3.org/1999/xlink" 
	 viewBox="0 0 496 496" xml:space="preserve">
<g>
	<g>
		<g>
			<path d="M496,112V96h-48v-8c0-13.232-10.768-24-24-24s-24,10.768-24,24v8h-48v16h64v32h-16v16h-28.688l-16-16H140.688l-16,16H96
				v-16H80v-32h64V96H96v-8c0-13.232-10.768-24-24-24S48,74.768,48,88v8H0v16h64v32H48v80h48v-16h28.688l8.592,8.592l-29.28,36.6
				V416h-8v16h32v-16h-8V258.808L147.848,224h7.512l32,56H248h60.64l32-56h7.512L376,258.808V416h-8v16h32v-16h-8V253.192
				l-29.28-36.608l8.592-8.584H400v16h48v-80h-16v-32H496z M64,88c0-4.416,3.584-8,8-8s8,3.584,8,8v8H64V88z M80,208H64v-48h16V208z
				 M400,192h-35.312l-16,16H331.36l-13.712,24H296v16h12.504l-9.144,16H248h-51.36l-9.144-16H280v-16H178.352l-13.712-24h-17.328
				l-16-16H96v-16h35.312l16-16h201.376l16,16H400V192z M432,208h-16v-48h16V208z M416,96v-8c0-4.416,3.584-8,8-8
				c4.416,0,8,3.584,8,8v8H416z"/>
			<rect x="160" y="176" width="16" height="16"/>
			<rect x="192" y="176" width="16" height="16"/>
			<rect x="296" y="176" width="16" height="16"/>
			<rect x="328" y="176" width="16" height="16"/>
		</g>
	</g>
</g>
</svg>