<?xml version="1.0" encoding="UTF-8"?>
<svg id="Calque_1" data-name="Calque 1" xmlns="http://www.w3.org/2000/svg" viewBox="0 0 328.36 581.01">
  <defs>
    <style>
      .cls-1 {
        fill: #dadada;
        stroke-width: 0px;
      }
    </style>
  </defs>
  <path class="cls-1" d="M320.61,272.4L41.96,6.9C32.3-2.3,17.12-2.3,7.46,6.9l-.3.3C-2.05,15.95-2.42,30.51,6.33,39.72c.27.29.55.56.83.83l262.4,250L7.16,540.45c-9.21,8.75-9.58,23.31-.83,32.52.27.29.55.56.83.83l.3.3c9.66,9.21,24.84,9.21,34.5,0l278.65-265.5c10-9.52,10.38-25.35.85-35.35-.28-.29-.56-.58-.85-.85h0Z"/>
</svg>