<?xml version="1.0" encoding="UTF-8"?>
<svg id="Calque_1" data-name="Calque 1" xmlns="http://www.w3.org/2000/svg" viewBox="0 0 581.01 506.39">
  <defs>
    <style>
      .cls-1 {
        fill: #dadada;
        stroke-width: 0px;
      }
    </style>
  </defs>
  <path class="cls-1" d="M308.6,498.64l265.5-278.65c9.21-9.66,9.21-24.84,0-34.5l-.3-.3c-8.75-9.21-23.31-9.58-32.52-.83-.29.27-.56.55-.83.83l-250,262.4L40.55,185.19c-8.75-9.21-23.31-9.58-32.52-.83-.29.27-.56.55-.83.83l-.3.3c-9.21,9.66-9.21,24.84,0,34.5l265.5,278.65c9.52,10,25.35,10.38,35.35.85.29-.28.58-.56.85-.85h0Z"/>
  <path class="cls-1" d="M308.6,320.61L574.1,41.96c9.21-9.66,9.21-24.84,0-34.5l-.3-.3c-8.75-9.21-23.31-9.58-32.52-.83-.29.27-.56.55-.83.83l-250,262.4L40.55,7.16C31.81-2.05,17.25-2.42,8.04,6.33c-.29.27-.56.55-.83.83l-.3.3c-9.21,9.66-9.21,24.84,0,34.5l265.5,278.65c9.52,10,25.35,10.38,35.35.85.29-.28.58-.56.85-.85h0Z"/>
</svg>